<svg width="24" height="24" viewBox="0 0 24 24" fill="none" xmlns="http://www.w3.org/2000/svg">
<path d="M15.1001 12.1732L15.3997 12L15.1001 11.8268L10.1001 8.93684L9.8 8.76339V9.11V14.89V15.2366L10.1001 15.0632L15.1001 12.1732ZM10.9 7.55321L15.8997 10.443C15.8997 10.443 15.8998 10.4431 15.8998 10.4431C16.1725 10.6013 16.3989 10.8284 16.5562 11.1016C16.7136 11.3749 16.7965 11.6847 16.7965 12C16.7965 12.3153 16.7136 12.6251 16.5562 12.8984C16.3989 13.1716 16.1725 13.3987 15.8998 13.5569C15.8998 13.5569 15.8997 13.557 15.8997 13.557L10.9 16.4468C10.6264 16.6048 10.316 16.6879 10 16.6879C9.68404 16.6879 9.37364 16.6048 9.1 16.4468C8.82664 16.289 8.59959 16.062 8.44162 15.7887C8.28365 15.5155 8.20033 15.2054 8.2 14.8898V9.1102C8.20033 8.7944 8.28373 8.48423 8.44185 8.21085C8.59997 7.93747 8.82722 7.71051 9.1008 7.55274C9.37438 7.39498 9.68466 7.31197 10.0005 7.31205C10.3163 7.31213 10.6265 7.3953 10.9 7.55321ZM6.55542 3.8516C8.16702 2.77476 10.0617 2.2 12 2.2C13.287 2.2 14.5613 2.45348 15.7503 2.94598C16.9393 3.43848 18.0196 4.16034 18.9296 5.07035C19.8397 5.98037 20.5615 7.06071 21.054 8.2497C21.5465 9.43869 21.8 10.713 21.8 12C21.8 13.9383 21.2252 15.833 20.1484 17.4446C19.0716 19.0562 17.541 20.3123 15.7503 21.054C13.9596 21.7958 11.9891 21.9898 10.0881 21.6117C8.18711 21.2336 6.44091 20.3002 5.07036 18.9296C3.6998 17.5591 2.76644 15.8129 2.38831 13.9119C2.01017 12.0109 2.20425 10.0404 2.94599 8.2497C3.68772 6.45899 4.94381 4.92844 6.55542 3.8516ZM7.44433 18.8181C8.79281 19.7191 10.3782 20.2 12 20.2C14.1748 20.2 16.2605 19.3361 17.7983 17.7983C19.3361 16.2605 20.2 14.1748 20.2 12C20.2 10.3782 19.7191 8.79281 18.8181 7.44432C17.917 6.09584 16.6364 5.04483 15.138 4.42419C13.6397 3.80355 11.9909 3.64116 10.4003 3.95756C8.80962 4.27396 7.34852 5.05493 6.20173 6.20172C5.05494 7.34852 4.27396 8.80962 3.95757 10.4003C3.64117 11.9909 3.80355 13.6396 4.42419 15.138C5.04483 16.6364 6.09585 17.917 7.44433 18.8181Z" fill="#161616" stroke="#F2F2F2" stroke-width="0.4"/>
</svg>
